<svg xmlns="http://www.w3.org/2000/svg" viewBox="0 0 311.61 299.95"><defs><style>.cls-1,.cls-6{fill:#101318;stroke-miterlimit:10;}.cls-1{stroke:#f4eb30;stroke-width:5px;}.cls-2{fill:#3a52a4;}.cls-3{opacity:0.5;}.cls-4{fill:#be5b54;}.cls-5{fill:#227f56;}.cls-6{stroke:#662d91;stroke-width:6px;}</style></defs><title>sadfAsset 1</title><g id="Layer_2" data-name="Layer 2"><g id="Layer_1-2" data-name="Layer 1"><ellipse class="cls-1" cx="152.95" cy="146.38" rx="150.45" ry="143.88"/><rect class="cls-2" x="59.31" y="75.46" width="34.43" height="48.84"/><rect class="cls-2" x="97.74" y="75.46" width="34.43" height="48.84"/><rect class="cls-2" x="136.18" y="75.46" width="34.43" height="48.84"/><rect class="cls-2" x="174.61" y="75.46" width="34.43" height="48.84"/><rect class="cls-2" x="213.18" y="75.46" width="34.43" height="48.84"/><rect class="cls-2" x="59.31" y="171.95" width="34.43" height="48.84"/><rect class="cls-2" x="97.74" y="171.95" width="34.43" height="48.84"/><rect class="cls-2" x="136.18" y="171.95" width="34.43" height="48.84"/><rect class="cls-2" x="174.61" y="171.95" width="34.43" height="48.84"/><rect class="cls-2" x="213.18" y="171.95" width="34.43" height="48.84"/><g class="cls-3"><path class="cls-4" d="M250.67,246.35H219.53V196.87l-64.84-4.26q-16.84-1.29-29.21-1.28-29.66,0-36.15,6.93A23.57,23.57,0,0,0,82.82,215q0,20.48,25.81,24.31V247q-59.29-7-59.29-47.35,0-18.76,11.51-30.18T95,158.05q14.92,0,63.13,4.48l61.42,5.76V123.08q-77.64-4.48-113.46-10.77T59.79,98.44A24.07,24.07,0,0,1,49.34,77.86a24.56,24.56,0,0,1,5.75-16.53,19,19,0,0,1,15.15-6.71q9,0,24.52,11.51a171,171,0,0,0,47,25.17q24.42,8.31,77.74,12.58V89.38q0-17.49-7.78-26.77T189.46,45V37.34q22.81,6.18,37.53,16t19.2,20.15q4.47,10.35,4.48,36.79Z"/></g><path class="cls-5" d="M55.31,226.47H250.59V166.28H55.31ZM213.18,172h34.43v48.84H213.18Zm-38.57,0H209v48.84H174.61Zm-38.43,0h34.43v48.84H136.18Zm-38.44,0h34.44v48.84H97.74Zm-38.43,0H93.74v48.84H59.31Z"/><path class="cls-5" d="M55.31,69.79V130H250.59V69.79ZM93.74,124.3H59.31V75.46H93.74Zm38.44,0H97.74V75.46h34.44Zm38.43,0H136.18V75.46h34.43Zm38.43,0H174.61V75.46H209Zm38.57,0H213.18V75.46h34.43Z"/><path class="cls-6" d="M153,290.26C240.27,288,297.24,243,303.4,146.38c-4,137-10.7,105.91,3.26,148.17C266.74,277.34,153,290.26,153,290.26Z"/></g></g></svg>